<?xml version="1.0" encoding="UTF-8" standalone="no"?>
<!-- Generator: Adobe Illustrator 16.2.1, SVG Export Plug-In . SVG Version: 6.00 Build 0)  -->

<svg
   xmlns:dc="http://purl.org/dc/elements/1.1/"
   xmlns:cc="http://creativecommons.org/ns#"
   xmlns:rdf="http://www.w3.org/1999/02/22-rdf-syntax-ns#"
   xmlns:svg="http://www.w3.org/2000/svg"
   xmlns="http://www.w3.org/2000/svg"
   xmlns:sodipodi="http://sodipodi.sourceforge.net/DTD/sodipodi-0.dtd"
   xmlns:inkscape="http://www.inkscape.org/namespaces/inkscape"
   version="1.1"
   id="Layer_1"
   x="0px"
   y="0px"
   width="512px"
   height="512px"
   viewBox="0 0 512 512"
   style="enable-background:new 0 0 512 512;"
   xml:space="preserve"
   inkscape:version="0.91 r13725"
   sodipodi:docname="simple_aperture.svg"><metadata
     id="metadata3362"><rdf:RDF><cc:Work
         rdf:about=""><dc:format>image/svg+xml</dc:format><dc:type
           rdf:resource="http://purl.org/dc/dcmitype/StillImage" /><dc:title></dc:title></cc:Work></rdf:RDF></metadata><defs
     id="defs3360" /><sodipodi:namedview
     pagecolor="#ffffff"
     bordercolor="#666666"
     borderopacity="1"
     objecttolerance="10"
     gridtolerance="10"
     guidetolerance="10"
     inkscape:pageopacity="0"
     inkscape:pageshadow="2"
     inkscape:window-width="640"
     inkscape:window-height="480"
     id="namedview3358"
     showgrid="false"
     inkscape:zoom="0.4609375"
     inkscape:cx="256"
     inkscape:cy="256"
     inkscape:window-x="754"
     inkscape:window-y="140"
     inkscape:window-maximized="0"
     inkscape:current-layer="Layer_1" /><path
     d="m 458.48269,93.083055 -405.01292,0 c -8.265571,0 -14.464748,7.439125 -14.464748,15.622155 l 0,294.58958 c 0,8.92698 6.887973,15.62215 14.464748,15.62215 l 405.01292,0 c 8.26557,0 14.46473,-7.43909 14.46473,-15.62215 l 0,-294.58958 c 0.68879,-8.92695 -6.19916,-15.622155 -14.46473,-15.622155 z m -14.46474,31.244315 0,154.73394 -97.80926,-104.89174 c -5.51038,-5.95131 -15.15355,-5.95131 -20.66393,0 l -108.1412,116.79434 -70.94613,-76.62305 c -5.51037,-5.9513 -15.15355,-5.9513 -20.6639,0 l -57.859008,62.4887 0,-152.50219 376.083428,0 z m -376.083428,197.13697 68.190948,-73.64738 60.61419,65.46435 -68.19097,73.64738 -59.925385,0 0,-65.46435 z m 101.942008,66.20829 57.859,-62.48871 0,0 0,0 108.14119,-116.79436 108.14123,116.79436 0,63.2326 -274.14142,0 z"
     id="path3347"
     inkscape:connector-curvature="0" /></svg>