<?xml version="1.0" standalone="no"?>
<!DOCTYPE svg PUBLIC "-//W3C//DTD SVG 20010904//EN"
 "http://www.w3.org/TR/2001/REC-SVG-20010904/DTD/svg10.dtd">
<svg version="1.0" xmlns="http://www.w3.org/2000/svg"
 width="500.000000pt" height="500.000000pt" viewBox="0 0 500.000000 500.000000"
 preserveAspectRatio="xMidYMid meet">
<metadata>
Created by potrace 1.11, written by Peter Selinger 2001-2013
</metadata>
<g transform="translate(0.000000,500.000000) scale(0.100000,-0.100000)"
fill="#000000" stroke="none">
<path d="M1698 4230 c-162 -40 -313 -135 -471 -296 -185 -189 -283 -349 -417
-684 -104 -259 -162 -363 -264 -468 -62 -65 -166 -140 -230 -167 -20 -8 -36
-19 -36 -23 0 -4 25 -25 56 -47 78 -56 226 -211 252 -266 33 -67 28 -97 -34
-229 l-57 -120 28 -40 c15 -22 51 -55 79 -73 131 -87 280 -108 507 -72 l46 7
75 -114 c156 -232 373 -476 592 -665 61 -52 192 -154 292 -228 172 -127 185
-135 228 -135 25 0 46 2 46 4 0 2 -16 46 -36 97 -91 234 -95 419 -15 577 44
85 84 137 227 293 327 356 404 534 409 944 3 214 11 256 91 487 59 171 67 184
106 197 118 37 344 58 465 42 91 -12 147 -36 334 -147 89 -53 116 -75 140
-112 56 -89 118 -275 163 -491 14 -68 28 -126 31 -130 10 -9 158 149 188 200
47 81 106 438 93 563 -16 153 -50 195 -235 284 -130 62 -139 69 -231 163 -99
101 -189 166 -360 257 -266 143 -498 159 -647 45 -64 -49 -80 -68 -112 -138
-60 -127 -70 -262 -31 -385 21 -65 21 -71 6 -117 -15 -46 -28 -119 -42 -228
l-7 -50 -27 105 c-110 415 -321 696 -602 800 -63 23 -92 59 -162 197 -44 89
-89 141 -141 164 -54 25 -193 24 -297 -1z m330 -793 c18 -12 57 -58 86 -102
29 -44 101 -154 160 -244 181 -274 292 -366 444 -366 90 0 87 6 86 -200 -2
-481 -205 -850 -518 -940 -90 -26 -166 -17 -268 34 -46 22 -90 46 -99 53 -9 8
-72 97 -141 199 -197 293 -254 429 -265 626 l-6 102 68 148 c93 206 185 426
234 568 23 66 44 121 46 123 2 2 21 10 42 18 45 16 86 10 131 -19z"/>
<path d="M2205 2057 c-63 -15 -90 -17 -128 -9 -55 11 -56 12 36 -58 84 -63
142 -90 210 -96 65 -6 114 20 124 66 3 17 17 43 32 59 l26 27 -55 17 c-48 14
-57 14 -71 1 -19 -18 -49 -18 -74 -1 -17 11 -33 10 -100 -6z"/>
<path d="M4230 2101 c0 -47 -74 -164 -161 -255 -182 -191 -346 -271 -505 -246
-78 12 -186 59 -226 97 -16 15 -28 22 -28 17 0 -17 31 -56 111 -141 91 -97 99
-119 65 -177 -61 -105 -164 -192 -331 -281 -246 -132 -361 -239 -470 -438
l-37 -67 158 0 158 0 121 61 c327 167 587 341 850 570 129 111 334 323 407
419 57 76 128 187 128 202 0 4 -14 8 -30 8 -41 0 -80 21 -117 64 -31 35 -73
131 -73 166 0 11 -4 20 -10 20 -5 0 -10 -8 -10 -19z"/>
<path d="M3571 2038 c-29 -19 -37 -20 -67 -9 -19 7 -38 9 -44 6 -5 -3 -27 -9
-49 -13 l-40 -7 62 -53 c77 -66 119 -79 191 -58 55 16 167 91 184 123 9 17 4
18 -71 18 -45 0 -93 3 -107 7 -17 5 -35 0 -59 -14z"/>
</g>
</svg>
